REM DIRINDEX 1\2,1\3,1\4,1\5
REM DIRNAME cjc004,folder01,folder02,folder03,folder04
TITLE ""
FILE "1Q_j_2199-2212.mp3" MP3
  TRACK 01 AUDIO
    TITLE "3:cjc004_0296"
    INDEX 01 00:00:00
  TRACK 02 AUDIO
    TITLE "0:"
    INDEX 01 00:01:11
  TRACK 03 AUDIO
    TITLE "4:cjc004_0297"
    INDEX 01 00:01:40
  TRACK 04 AUDIO
    TITLE "0:"
    INDEX 01 00:02:67
  TRACK 05 AUDIO
    TITLE "5:cjc004_0298"
    INDEX 01 00:03:15
  TRACK 06 AUDIO
    TITLE "0:"
    INDEX 01 00:09:02
  TRACK 07 AUDIO
    TITLE "3:cjc004_0299"
    INDEX 01 00:09:57
  TRACK 08 AUDIO
    TITLE "0:"
    INDEX 01 00:10:72
  TRACK 09 AUDIO
    TITLE "4:cjc004_0300"
    INDEX 01 00:11:23
  TRACK 10 AUDIO
    TITLE "0:"
    INDEX 01 00:12:36
  TRACK 11 AUDIO
    TITLE "5:cjc004_0301"
    INDEX 01 00:12:61
  TRACK 12 AUDIO
    TITLE "0:"
    INDEX 01 00:17:16
  TRACK 13 AUDIO
    TITLE "3:cjc004_0302"
    INDEX 01 00:18:05
  TRACK 14 AUDIO
    TITLE "0:"
    INDEX 01 00:19:34
  TRACK 15 AUDIO
    TITLE "4:cjc004_0303"
    INDEX 01 00:19:65
  TRACK 16 AUDIO
    TITLE "0:"
    INDEX 01 00:20:69
  TRACK 17 AUDIO
    TITLE "5:cjc004_0304"
    INDEX 01 00:21:23
  TRACK 18 AUDIO
    TITLE "0:"
    INDEX 01 00:25:58
  TRACK 19 AUDIO
    TITLE "3:cjc004_0305"
    INDEX 01 00:26:34
  TRACK 20 AUDIO
    TITLE "0:"
    INDEX 01 00:27:49
  TRACK 21 AUDIO
    TITLE "4:cjc004_0306"
    INDEX 01 00:28:04
  TRACK 22 AUDIO
    TITLE "0:"
    INDEX 01 00:29:27
  TRACK 23 AUDIO
    TITLE "5:cjc004_0307"
    INDEX 01 00:29:56
  TRACK 24 AUDIO
    TITLE "0:"
    INDEX 01 00:35:08
  TRACK 25 AUDIO
    TITLE "3:cjc004_0308"
    INDEX 01 00:35:63
  TRACK 26 AUDIO
    TITLE "0:"
    INDEX 01 00:37:36
  TRACK 27 AUDIO
    TITLE "4:cjc004_0309"
    INDEX 01 00:37:73
  TRACK 28 AUDIO
    TITLE "0:"
    INDEX 01 00:39:09
  TRACK 29 AUDIO
    TITLE "5:cjc004_0310"
    INDEX 01 00:39:35
  TRACK 30 AUDIO
    TITLE "0:"
    INDEX 01 00:43:40
  TRACK 31 AUDIO
    TITLE "3:cjc004_0311"
    INDEX 01 00:44:28
  TRACK 32 AUDIO
    TITLE "0:"
    INDEX 01 00:45:55
  TRACK 33 AUDIO
    TITLE "4:cjc004_0312"
    INDEX 01 00:46:09
  TRACK 34 AUDIO
    TITLE "0:"
    INDEX 01 00:47:72
  TRACK 35 AUDIO
    TITLE "5:cjc004_0313"
    INDEX 01 00:48:20
  TRACK 36 AUDIO
    TITLE "0:"
    INDEX 01 00:52:57
  TRACK 37 AUDIO
    TITLE "3:cjc004_0314"
    INDEX 01 00:53:39
  TRACK 38 AUDIO
    TITLE "0:"
    INDEX 01 00:54:74
  TRACK 39 AUDIO
    TITLE "4:cjc004_0315"
    INDEX 01 00:55:30
  TRACK 40 AUDIO
    TITLE "0:"
    INDEX 01 00:57:25
  TRACK 41 AUDIO
    TITLE "5:cjc004_0316"
    INDEX 01 00:57:58
  TRACK 42 AUDIO
    TITLE "0:"
    INDEX 01 01:04:19
  TRACK 43 AUDIO
    TITLE "3:cjc004_0317"
    INDEX 01 01:05:05
  TRACK 44 AUDIO
    TITLE "0:"
    INDEX 01 01:06:28
  TRACK 45 AUDIO
    TITLE "4:cjc004_0318"
    INDEX 01 01:06:59
  TRACK 46 AUDIO
    TITLE "0:"
    INDEX 01 01:07:74
  TRACK 47 AUDIO
    TITLE "5:cjc004_0319"
    INDEX 01 01:08:21
  TRACK 48 AUDIO
    TITLE "0:"
    INDEX 01 01:12:36
  TRACK 49 AUDIO
    TITLE "3:cjc004_0320"
    INDEX 01 01:13:18
  TRACK 50 AUDIO
    TITLE "0:"
    INDEX 01 01:14:25
  TRACK 51 AUDIO
    TITLE "4:cjc004_0321"
    INDEX 01 01:14:65
  TRACK 52 AUDIO
    TITLE "0:"
    INDEX 01 01:16:38
  TRACK 53 AUDIO
    TITLE "5:cjc004_0322"
    INDEX 01 01:16:65
  TRACK 54 AUDIO
    TITLE "0:"
    INDEX 01 01:21:70
  TRACK 55 AUDIO
    TITLE "3:cjc004_0323"
    INDEX 01 01:22:54
  TRACK 56 AUDIO
    TITLE "0:"
    INDEX 01 01:24:08
  TRACK 57 AUDIO
    TITLE "4:cjc004_0324"
    INDEX 01 01:24:37
  TRACK 58 AUDIO
    TITLE "0:"
    INDEX 01 01:25:70
  TRACK 59 AUDIO
    TITLE "5:cjc004_0325"
    INDEX 01 01:26:17
  TRACK 60 AUDIO
    TITLE "0:"
    INDEX 01 01:34:54
  TRACK 61 AUDIO
    TITLE "3:cjc004_0326"
    INDEX 01 01:35:26
  TRACK 62 AUDIO
    TITLE "0:"
    INDEX 01 01:36:41
  TRACK 63 AUDIO
    TITLE "4:cjc004_0327"
    INDEX 01 01:36:68
  TRACK 64 AUDIO
    TITLE "0:"
    INDEX 01 01:37:73
  TRACK 65 AUDIO
    TITLE "5:cjc004_0328"
    INDEX 01 01:38:28
  TRACK 66 AUDIO
    TITLE "0:"
    INDEX 01 01:42:65
  TRACK 67 AUDIO
    TITLE "3:cjc004_0329"
    INDEX 01 01:43:47
  TRACK 68 AUDIO
    TITLE "0:"
    INDEX 01 01:44:73
  TRACK 69 AUDIO
    TITLE "4:cjc004_0330"
    INDEX 01 01:45:28
  TRACK 70 AUDIO
    TITLE "0:"
    INDEX 01 01:47:21
  TRACK 71 AUDIO
    TITLE "5:cjc004_0331"
    INDEX 01 01:47:44
  TRACK 72 AUDIO
    TITLE "0:"
    INDEX 01 01:52:02
  TRACK 73 AUDIO
    TITLE "3:cjc004_0332"
    INDEX 01 01:52:51
  TRACK 74 AUDIO
    TITLE "0:"
    INDEX 01 01:54:56
  TRACK 75 AUDIO
    TITLE "4:cjc004_0333"
    INDEX 01 01:55:09
  TRACK 76 AUDIO
    TITLE "0:"
    INDEX 01 01:57:25
  TRACK 77 AUDIO
    TITLE "5:cjc004_0334"
    INDEX 01 01:57:55
  TRACK 78 AUDIO
    TITLE "0:"
    INDEX 01 02:00:16
  TRACK 79 AUDIO
    TITLE "3:cjc004_0335"
    INDEX 01 02:00:71
  TRACK 80 AUDIO
    TITLE "0:"
    INDEX 01 02:02:30
  TRACK 81 AUDIO
    TITLE "4:cjc004_0336"
    INDEX 01 02:02:58
  TRACK 82 AUDIO
    TITLE "0:"
    INDEX 01 02:03:65
  TRACK 83 AUDIO
    TITLE "5:cjc004_0337"
    INDEX 01 02:04:19
  TRACK 84 AUDIO
    TITLE "0:"
    INDEX 01 02:08:15
